<svg xmlns="http://www.w3.org/2000/svg" xmlns:xlink="http://www.w3.org/1999/xlink" width="3600" zoomAndPan="magnify" viewBox="0 0 2700 2699.999998" height="3600" preserveAspectRatio="xMidYMid meet" version="1.0"><defs><g/><clipPath id="c27e56058a"><path d="M 164 892.347656 L 1088.601562 892.347656 L 1088.601562 1807.347656 L 164 1807.347656 Z M 164 892.347656 " clip-rule="nonzero"/></clipPath><clipPath id="8ad78c376e"><path d="M 160.101562 1079 L 534 1079 L 534 1680 L 160.101562 1680 Z M 160.101562 1079 " clip-rule="nonzero"/></clipPath></defs><g clip-path="url(#c27e56058a)"><path fill="#00bf63" d="M 739.78125 1807.425781 C 821.59375 1786.472656 894.429688 1743.578125 952.292969 1685.714844 C 1037.097656 1601.902344 1088.976562 1486.175781 1088.976562 1358.480469 C 1088.976562 1230.773438 1037.097656 1114.042969 952.292969 1029.25 C 867.492188 945.441406 751.761719 892.566406 623.0625 892.566406 C 495.359375 892.566406 379.628906 945.441406 295.828125 1029.25 C 225.988281 1100.074219 178.101562 1192.859375 164.136719 1296.621094 C 237.964844 1150.960938 385.617188 1074.140625 533.269531 1080.125 C 562.203125 1070.15625 592.132812 1065.164062 623.0625 1065.164062 C 703.871094 1065.164062 776.703125 1098.089844 830.578125 1151.957031 C 989.203125 1310.589844 924.359375 1684.710938 739.78125 1807.425781 " fill-opacity="1" fill-rule="evenodd"/></g><g clip-path="url(#8ad78c376e)"><path fill="#191919" d="M 302.808594 1261.699219 C 324.761719 1239.75 348.703125 1221.796875 374.640625 1207.832031 C 386.617188 1186.875 401.578125 1167.917969 418.539062 1150.960938 C 450.464844 1119.03125 489.371094 1094.09375 533.269531 1080.125 C 385.617188 1074.140625 237.964844 1150.960938 164.136719 1296.621094 C 161.144531 1316.570312 160.144531 1337.523438 160.144531 1358.480469 C 160.144531 1483.183594 209.03125 1595.917969 288.84375 1679.730469 C 191.070312 1566.992188 179.097656 1386.414062 302.808594 1261.699219 " fill-opacity="1" fill-rule="evenodd"/></g><path fill="#191919" d="M 374.640625 1207.832031 C 348.703125 1221.796875 324.761719 1239.75 302.808594 1261.699219 C 179.097656 1386.414062 191.070312 1566.992188 288.84375 1679.730469 C 290.839844 1681.71875 292.832031 1683.714844 295.828125 1686.710938 C 313.785156 1704.671875 332.738281 1720.625 353.691406 1735.59375 C 399.582031 1764.519531 454.457031 1781.492188 516.3125 1781.492188 C 653.984375 1781.492188 757.746094 1697.679688 801.644531 1588.933594 C 751.761719 1626.84375 689.902344 1648.792969 623.0625 1648.792969 C 543.246094 1648.792969 470.417969 1616.875 417.539062 1563.992188 C 365.664062 1512.121094 332.738281 1439.289062 332.738281 1358.480469 C 332.738281 1303.609375 347.707031 1251.730469 374.640625 1207.832031 " fill-opacity="1" fill-rule="evenodd"/><g fill="#191919" fill-opacity="1"><g transform="translate(1163.527683, 1613.784871)"><g><path d="M 389.78125 -385.9375 L 389.78125 0 L 344.578125 0 L 113.015625 -287.796875 L 113.015625 0 L 57.890625 0 L 57.890625 -385.9375 L 103.09375 -385.9375 L 334.65625 -98.140625 L 334.65625 -385.9375 Z M 389.78125 -385.9375 "/></g></g></g><g fill="#191919" fill-opacity="1"><g transform="translate(1682.331648, 1613.784871)"><g><path d="M 205.640625 -133.421875 L 205.640625 0 L 151.0625 0 L 151.0625 -134.53125 L -2.203125 -385.9375 L 56.78125 -385.9375 L 180.28125 -182.484375 L 304.328125 -385.9375 L 358.921875 -385.9375 Z M 205.640625 -133.421875 "/></g></g></g><g fill="#191919" fill-opacity="1"><g transform="translate(2093.625878, 1613.784871)"><g><path d="M 300.46875 0 L 184.6875 -159.328125 L 70.5625 0 L 7.171875 0 L 152.171875 -197.921875 L 15.984375 -385.9375 L 78.84375 -385.9375 L 186.90625 -237.625 L 293.859375 -385.9375 L 353.953125 -385.9375 L 217.78125 -199.578125 L 363.875 0 Z M 300.46875 0 "/></g></g></g></svg>